<?xml version="1.0" encoding="iso-8859-1"?>
<!-- Generator: Adobe Illustrator 18.1.1, SVG Export Plug-In . SVG Version: 6.00 Build 0)  -->
<svg version="1.1" id="Capa_1" xmlns="http://www.w3.org/2000/svg" xmlns:xlink="http://www.w3.org/1999/xlink" x="0px" y="0px"
	 viewBox="0 0 290.339 290.339" style="enable-background:new 0 0 290.339 290.339;" xml:space="preserve">
<g>
	<path id="path5682" d="M5.117,0.06c-4.488,0.003-6.7,5.458-3.482,8.586l51.344,51.344L35.3,77.669
		c-1.822,1.823-1.821,4.778,0.003,6.6c0.598,0.597,1.346,1.021,2.165,1.226l56.568,14.143c2.501,0.625,5.035-0.895,5.66-3.395
		c0.186-0.744,0.186-1.521,0-2.265L85.554,37.409c-0.509-2.034-2.312-3.48-4.408-3.533c-1.278-0.032-2.514,0.461-3.418,1.365
		l-17.68,17.678L8.705,1.575C7.763,0.606,6.468,0.059,5.117,0.06z M285.072,0.062c-1.299,0.039-2.532,0.582-3.438,1.514
		l-51.344,51.344l-17.68-17.678c-0.892-0.891-2.106-1.384-3.367-1.365c-2.115,0.031-3.945,1.481-4.459,3.533l-14.143,56.568
		c-0.625,2.501,0.895,5.035,3.395,5.66c0.744,0.186,1.521,0.186,2.265,0l56.568-14.143c2.5-0.626,4.02-3.161,3.394-5.661
		c-0.205-0.819-0.629-1.568-1.226-2.165l-17.678-17.68l51.344-51.344C291.975,5.466,289.631-0.073,285.072,0.062z M78.5,47.669
		l10.256,41.027L47.728,78.44L78.5,47.669z M211.839,47.669l30.771,30.771l-41.027,10.256L211.839,47.669z M230.632,71.39
		c-0.225-0.007-0.451,0.017-0.67,0.07l-18.385,4.244c-1.352,0.281-2.22,1.605-1.938,2.957c0.281,1.352,1.605,2.22,2.957,1.938
		c0.035-0.007,0.071-0.016,0.106-0.024l18.385-4.242c1.35-0.291,2.208-1.621,1.917-2.971
		C232.762,72.237,231.783,71.423,230.632,71.39z M59.882,71.392c-1.38-0.055-2.543,1.019-2.598,2.399
		c-0.048,1.213,0.781,2.285,1.967,2.543l18.385,4.242c1.338,0.34,2.699-0.469,3.039-1.808c0.34-1.338-0.469-2.699-1.808-3.039
		c-0.035-0.009-0.07-0.017-0.106-0.024L60.377,71.46C60.215,71.421,60.049,71.398,59.882,71.392z M95.242,190.444
		c-0.406-0.006-0.811,0.04-1.205,0.139l-56.568,14.143c-2.5,0.626-4.02,3.161-3.394,5.661c0.205,0.819,0.629,1.568,1.226,2.165
		l17.678,17.68L1.634,281.575c-4.908,4.713,2.358,11.978,7.07,7.07l51.344-51.344l17.68,17.678c1.823,1.822,4.778,1.821,6.6-0.003
		c0.597-0.598,1.021-1.346,1.226-2.165l14.143-56.57c0.624-2.501-0.897-5.034-3.398-5.659
		C95.953,190.496,95.598,190.45,95.242,190.444z M195.379,190.448c-2.575-0.115-4.756,1.879-4.871,4.454
		c-0.02,0.45,0.025,0.901,0.134,1.339l14.143,56.57c0.626,2.5,3.161,4.02,5.661,3.394c0.819-0.205,1.568-0.629,2.165-1.226
		l17.68-17.678l51.344,51.344c4.713,4.908,11.978-2.358,7.07-7.07l-51.344-51.344l17.678-17.68c1.822-1.823,1.821-4.778-0.003-6.6
		c-0.598-0.597-1.346-1.021-2.165-1.226l-56.57-14.143C195.998,190.507,195.69,190.462,195.379,190.448z M88.755,201.524
		L78.5,242.552L47.728,211.78L88.755,201.524z M201.584,201.524l41.027,10.256l-30.771,30.771L201.584,201.524z M78.306,209.573
		c-0.226-0.006-0.451,0.018-0.67,0.072l-18.385,4.242c-1.352,0.281-2.22,1.605-1.938,2.957s1.605,2.22,2.957,1.938
		c0.035-0.007,0.071-0.016,0.106-0.024l18.385-4.242c1.35-0.291,2.208-1.621,1.917-2.971
		C80.436,210.42,79.457,209.606,78.306,209.573z M212.209,209.575c-1.38-0.055-2.543,1.019-2.598,2.399
		c-0.048,1.213,0.781,2.285,1.967,2.543l18.385,4.242c1.338,0.34,2.699-0.469,3.039-1.808c0.34-1.338-0.469-2.699-1.808-3.039
		c-0.035-0.009-0.07-0.017-0.106-0.024l-18.385-4.242C212.541,209.606,212.375,209.582,212.209,209.575z"/>
</g>
<g>
</g>
<g>
</g>
<g>
</g>
<g>
</g>
<g>
</g>
<g>
</g>
<g>
</g>
<g>
</g>
<g>
</g>
<g>
</g>
<g>
</g>
<g>
</g>
<g>
</g>
<g>
</g>
<g>
</g>
</svg>
